<svg width="16" height="16" version="1.1" viewBox="0 0 4.2333 4.2333" xmlns="http://www.w3.org/2000/svg" xmlns:xlink="http://www.w3.org/1999/xlink">
 <defs>
  <filter id="filter3869" x="-.066592" y="-.062152" width="1.1332" height="1.1243" color-interpolation-filters="sRGB">
   <feGaussianBlur stdDeviation="3.8845197"/>
  </filter>
  <radialGradient id="radialGradient3171" cx="-294.86" cy="-75.784" r="40.52" gradientTransform="matrix(-1.0604 1.2834 -1.4833 -1.2255 -189.42 980.53)" gradientUnits="userSpaceOnUse">
   <stop stop-color="#682c00" offset="0"/>
   <stop stop-color="#d3a318" offset="1"/>
  </radialGradient>
  <linearGradient id="linearGradient3178" x1="637.06" x2="634.95" y1="-439.71" y2="-142.56" gradientTransform="translate(209.25 489.1)" gradientUnits="userSpaceOnUse">
   <stop stop-color="#fff" offset="0"/>
   <stop stop-color="#fff" stop-opacity="0" offset="1"/>
  </linearGradient>
  <linearGradient id="linearGradient3188" x1="14.297" x2="-118.11" y1="60.791" y2="60.791" gradientTransform="matrix(1.5306 0 0 1.5306 981.2 223.71)" gradientUnits="userSpaceOnUse">
   <stop stop-color="#e3e2db" offset="0"/>
   <stop stop-color="#e3e2db" stop-opacity="0" offset="1"/>
  </linearGradient>
  <linearGradient id="linearGradient3194" x1="643.74" x2="643.74" y1="-368.91" y2="-88.423" gradientTransform="translate(210.53 489.73)" gradientUnits="userSpaceOnUse">
   <stop stop-color="#f0e060" offset="0"/>
   <stop stop-color="#804400" offset="1"/>
  </linearGradient>
 </defs>
 <g transform="matrix(.010882 0 0 .010882 -6.0449 -1.1737)">
  <g stroke="#fff" stroke-width="1.5306px">
   <path d="m681.97 108.68c-17.098 2.8112-38.452-4.9464-51.991 9.3268-14.905 16.044-5.8783 39.277-7.7963 58.639-1.5206 18.415 2.9245 37.868-1.9132 55.626-11.802 16.564-1.4931 37.419-1.6262 55.674-0.2784 4.6246 5.151 13.98-2.7741 14.397-39.209 14.811-58.778 67.407-36.112 103.5 15.59 26.992 50.082 42.442 80.641 34.246 3.9609 9.6236 14.627 13.956 20.136 22.432 6.1498 6.2198 15.812 6.1664 23.15 8.7529 12.011 21.573 39.639 27.609 62.466 23.724 24.905-0.76809 52.801 5.5968 75.161-8.1696 3.2281-4.3141 8.2657-3.4944 12.559-1.9225 15.637 1.5882 29.529-15.803 23.006-30.372-1.9974-4.4804-5.6861-10.632 0-13.966 7.4753-10.742 10.002-24.601 7.3658-37.403 21.465-7.203 44.085-23.391 44.721-48.117 1.8182-23.119-0.2843-46.357 0.9088-69.497-0.7821-43.347-16.994-87.91-51.04-115.85-44.044-38.208-111.72-49.158-164.1-22.144 1.4718-15.998-6.2373-34.933-23.58-37.977-2.9787-0.79274-6.0923-1.1183-9.1834-0.90877z" fill="#f8ec70"/>
   <path d="m776.11 363.8c-21.92 0.10227-43.016 5.8915-62.896 14.11-8.9968-1.2491-18.894 5.8599-18.319 15.306-4.1826 4.3414-4.2626 12.053-11.24 12.914-15.368 8.015-15.866 34.671 1.1957 41.134 5.4766 0.0756 2.8682 5.734 6.6484 8.2267 6.0337 5.7929 15.38 2.8305 22.384 4.3525 3.4984 16.551 21.666 25.555 37.642 25.398 21.212-1.3322 42.482 0.54264 63.709-0.57396 10.478-0.20708 20.849-3.2535 27.885-11.431 6.3732-2.7875 15.224 4.2705 21.667-1.1958 9.2692-8.5217-3.7075-20.533-1.8175-29.989 15.777-12.858 16.84-39.856 0.5261-52.661-7.4149-6.9282-16.89-11.345-24.824-17.506-6.8027-1.4803-13.848-0.915-20.196-4.1079-13.874-3.1647-28.141-4.2731-42.365-3.9753z" fill="#22241c"/>
   <path d="m705.7 388.03-7.6528 61.222 160.71 15.306-22.958-84.181z" fill="#400400"/>
  </g>
  <g>
   <rect x="721" y="422.04" width="122.44" height="53.569" ry="26.785" fill="#804400" stroke="#e6e6e6" stroke-width="1.5306"/>
   <ellipse cx="781.05" cy="415.36" rx="85.352" ry="42.427" fill="#d4a81c" stroke="#e2e3db" stroke-width="2.2958"/>
   <path d="m866.4 415.36a85.352 42.427 0 0 1-44.009 37.117 85.352 42.427 0 0 1-86.644-1.1594 85.352 42.427 0 0 1-39.928-38.24l85.229 2.2826z" fill="#540"/>
  </g>
  <g>
   <ellipse cx="781.05" cy="415.36" rx="85.352" ry="42.427" fill="none" stroke="#e2e3db" stroke-width="2.2958"/>
   <path d="m684.25 122.73c-13.932 3.8018-31.201-4.9489-43.143 5.2135-10.331 11.736-2.5927 28.456-4.3845 42.377-0.1548 22.25 0.1445 45.223-0.016 67.058-12.266 7.5018-6.6164 23.871-4.9685 35.238 2.3705 18.988 2.7119 38.591 7.5513 57.217 10.272 2.0465 4.7323 14.527 5.3569 21.523-1.5698 20.858 17.497 35.345 35.155 41.277 49.764 18.735 104.7 18.732 156.83 12.484 25.614-4.1065 52.64-10.585 72.94-27.215 11.956-12 10.512-29.975 9.6617-45.486 1.0224-40.53 3.3725-84.999-19.802-120.24-33.608-56.568-111.95-82.692-172.3-53.769-19.484 8.3916-37.805 22.886-51.067 38.272-0.1119-7.9792-1.2531-18.641 1.7696-24.967 6.4487 9.7505 23.173 6.3898 24.967-5.2613 2.6127-10.161 1.5053-21.208 1.0045-31.472-2.7041-7.9573-11.315-12.924-19.562-12.244z" fill="#22241c" stroke="#fff" stroke-width="3.0611"/>
   <path d="m651.51 138.62v22.432h0.6218v89.251h-7.6527l7.6527 68.875 15.306 15.306 7.6528-84.181h-14.301v-89.251h5.6918c0-4.1346 4.9903-7.4614 11.192-7.4614 6.2018 0 11.24 3.3269 11.24 7.4614v-22.432z" fill="#d4a81c" stroke="#fcf478" stroke-width="3.0611"/>
   <path d="m782.33 162.15c-67.458 0-121.77 54.317-121.77 121.77v71.649c0 20.991 54.317 37.881 121.77 37.881s121.77-16.891 121.77-37.881v-71.649c0-67.458-54.317-121.77-121.77-121.77z" fill="none" stroke="#fcfc80" stroke-width="3.8264"/>
  </g>
  <g>
   <g>
    <path d="m782.33 162.15c-67.458 0-121.77 54.317-121.77 121.77v71.649c0 20.991 54.317 37.881 121.77 37.881s121.77-16.891 121.77-37.881v-71.649c0-67.458-54.317-121.77-121.77-121.77z" fill="url(#linearGradient3194)" stroke="#fcf478" stroke-width="3.8264"/>
    <path d="m661.51 268.43c-0.6395 5.075-0.9566 10.243-0.9566 15.497v71.649c0 20.991 54.317 37.881 121.77 37.881s121.77-16.891 121.77-37.881v-71.649c0-5.2539-0.3171-10.422-0.9566-15.497-7.3946 18.756-58.476 33.194-120.82 33.194s-113.42-14.438-120.82-33.194z" fill="#e8d04c" stroke="#fcf478" stroke-width="5.0508"/>
    <path d="m661.41 268.75c-0.6395 5.075-0.9566 10.243-0.9566 15.497v71.649c0 3.9702 1.9406 7.7932 5.5483 11.384 8.5917-10.593 22.446-17.458 38.072-17.458 26.058 0 47.179 19.13 47.208 42.712 9.8866 0.801 20.231 1.2436 30.946 1.2436 10.506 0 20.707-0.42465 30.42-1.1958 1.0258-22.781 21.74-40.942 47.16-40.942 15.249 0 28.821 6.5455 37.451 16.693 4.3485-3.9038 6.744-8.0597 6.744-12.436v-71.649c0-5.2539-0.317-10.422-0.9566-15.497-7.3946 18.756-58.476 33.194-120.82 33.194s-113.42-14.438-120.82-33.194z" fill="#ac8126" stroke="#fff" stroke-width=".91833"/>
    <path d="m661.46 268.43c-0.6396 5.075-0.9566 10.243-0.9566 15.497l0.2869 4.6395v7.6528s10.475 15.306 21.954 22.958c11.479 7.6528 30.611 22.939 76.528 30.611l-7.4136 42.473c12.267 1.5613 23.161 1.1986 30.324 1.1958h0.048v0.0957c0.014-1e-5 0.034 0 0.048 0 0.028-1e-5 0.067 0 0.096 0 7.1633 3e-3 18.058 0.36556 30.324-1.1958l-7.4136-42.473c45.917-7.6724 65.049-23.006 76.528-30.659s21.954-22.958 21.954-22.958v-7.6528l0.287-4.5917c0-5.2539-0.3171-10.422-0.9566-15.497-7.3909 18.746-58.424 33.179-120.72 33.194h-0.048v-0.0957h-0.144c-62.299-0.0153-113.33-14.447-120.72-33.194z" fill="#241f1c" stroke="#a80" stroke-width="5.0508"/>
   </g>
   <path d="m848.24 293.61c-13.57 2.8889-29.111 4.9445-45.917 5.9309v92.025c2.4398-0.17948 4.9735-0.38861 7.5571-0.71745l-7.4136-42.473c19.692-3.2905 34.425-8.0155 45.773-12.914v-41.851z" fill="url(#linearGradient3188)"/>
  </g>
  <path d="m661.46 268.43c-0.6396 5.075-0.9566 10.243-0.9566 15.497l0.2869 4.6395v7.6528s10.475 15.306 21.954 22.958c11.479 7.6528 30.611 22.939 76.528 30.611l-7.4136 42.473c12.267 1.5613 23.161 1.1986 30.324 1.1958h0.048v0.0957c0.014-1e-5 0.034 0 0.048 0 0.028-1e-5 0.067 0 0.096 0 7.1633 3e-3 18.058 0.36556 30.324-1.1958l-7.4136-42.473c45.917-7.6724 65.049-23.006 76.528-30.659s21.954-22.958 21.954-22.958v-7.6528l0.287-4.5917c0-5.2539-0.3171-10.422-0.9566-15.497-7.3909 18.746-58.424 33.179-120.72 33.194h-0.048v-0.0957h-0.144c-62.299-0.0153-113.33-14.447-120.72-33.194z" fill="none" stroke="#fff" stroke-width=".91833"/>
  <g>
   <circle cx="694.76" cy="426.56" r="13.796" fill="#d4a81c" stroke="#fff" stroke-width="1.1037"/>
   <rect transform="rotate(-41.61)" x="220.96" y="749.05" width="30.611" height="30.611" ry="0" fill="#1a1a1a"/>
   <ellipse transform="rotate(-41.61)" cx="235.47" cy="706.06" rx="60.059" ry="60.059" fill="url(#radialGradient3171)" stroke="#b47800" stroke-dasharray="37.468, 37.468" stroke-width="9.367"/>
   <g stroke="#fff">
    <ellipse transform="rotate(-41.61)" cx="235.47" cy="706.06" rx="38.25" ry="38.25" fill="#d0a014" stroke-width="1.4814"/>
    <ellipse transform="rotate(-41.61)" cx="235.47" cy="706.06" rx="21.676" ry="21.676" fill="#f4ec6c" stroke-width=".83949"/>
    <ellipse transform="rotate(-41.61)" cx="235.47" cy="706.06" rx="14.697" ry="14.697" stroke-width="3.0183"/>
   </g>
   <path d="m778.84 166.94c-42.026 0.52225-82.523 25.759-101.56 63.219 0.7675 45.993 34.858 86.666 76.89 102.83 47.534 19.162 106.2 11.361 145.33-22.77 0.6104-25.769 0.7262-52.692-11.292-76.221-19.277-41.301-63.804-68.905-109.36-67.06z" fill="url(#linearGradient3178)"/>
  </g>
  <path transform="matrix(.35705 0 0 .53236 531.98 39.053)" d="m230 580 10 70 10-70 60-10-60-10-10-60-10 60-60 10z" fill="#fff" filter="url(#filter3869)"/>
  <path transform="matrix(.6707 0 0 1 696.17 -374.48)" d="m230 580 10 70 10-70 60-10-60-10-10-60-10 60-60 10z" fill="#fff" filter="url(#filter3869)"/>
 </g>
 <path d="m4.1822 2.6301c-1.768e-4 -6.376e-4 -5.568e-4 -0.00178-8.445e-4 -0.00254-5.364e-4 -0.00141-7.628e-4 -0.00258-0.00108-0.00558-9.96e-5 -9.425e-4 -2.744e-4 -0.00208-3.885e-4 -0.00252-1.139e-4 -4.436e-4 -2.041e-4 -0.00212-2.001e-4 -0.00373 0-0.00259 5.69e-5 -0.00303 4.502e-4 -0.00383 3.724e-4 -7.624e-4 5.471e-4 -9.173e-4 0.00109-9.703e-4 5.725e-4 -5.55e-5 6.922e-4 2.28e-5 9.917e-4 6.514e-4 3.012e-4 6.316e-4 3.096e-4 8.375e-4 7.26e-5 0.00178-1.674e-4 6.631e-4 -3.021e-4 0.00281-3.589e-4 0.00572-8.53e-5 0.00439-6.4e-5 0.00476 3.724e-4 0.00635 4.98e-4 0.00182 7.817e-4 0.00582 4.123e-4 0.00582-1.095e-4 0-3.447e-4 -5.216e-4 -5.216e-4 -0.00116zm-0.01425-0.00252c-2.598e-4 -4.852e-4 -5.051e-4 -0.00216-7.436e-4 -0.00509-8.11e-5 -9.98e-4 -2.29e-4 -0.00194-3.284e-4 -0.0021-9.96e-5 -1.593e-4 -2.398e-4 -0.00175-3.123e-4 -0.00354-1.11e-4 -0.00276-1.989e-4 -0.00339-5.698e-4 -0.00416-3.569e-4 -7.372e-4 -4.381e-4 -0.00127-4.381e-4 -0.00285 0-0.0022-4.452e-4 -0.00369-0.00138-0.0046-2.97e-4 -2.905e-4 -9.027e-4 -9.652e-4 -0.00135-0.0015-4.435e-4 -5.342e-4 -0.00136-0.00152-0.00204-0.00219-0.00147-0.00146-0.00233-0.00271-0.00268-0.00394-1.445e-4 -4.99e-4 -5.423e-4 -0.0015-8.842e-4 -0.00222-6.187e-4 -0.0013-6.214e-4 -0.00132-5.679e-4 -0.00433 2.99e-5 -0.00166 1.461e-4 -0.00366 2.59e-4 -0.00444 1.124e-4 -7.762e-4 2.505e-4 -0.00241 3.058e-4 -0.00363 7.96e-5 -0.00175 1.725e-4 -0.00228 4.446e-4 -0.00252 1.894e-4 -1.663e-4 6.114e-4 -7.017e-4 9.379e-4 -0.00119 7.554e-4 -0.00113 0.00149-0.00143 0.0035-0.00143 0.00181 0 0.00224 2.355e-4 0.00224 0.00124 0 3.344e-4 3.174e-4 0.00118 7.056e-4 0.00187 3.88e-4 6.939e-4 7.056e-4 0.00154 7.056e-4 0.00189 0 6.002e-4 0.00118 0.00325 0.00173 0.00387 1.456e-4 1.663e-4 5.414e-4 6.107e-4 8.795e-4 9.875e-4 7.027e-4 7.83e-4 7.286e-4 8.849e-4 3.125e-4 0.00123-2.31e-4 1.918e-4 -3.024e-4 7.158e-4 -3.024e-4 0.00222 0 0.00141-1.366e-4 0.0025-4.805e-4 0.00386-2.642e-4 0.00104-5.407e-4 0.00274-6.142e-4 0.00378-7.4e-5 0.00104-2.656e-4 0.00215-4.268e-4 0.00246-3.863e-4 7.472e-4 -3.76e-4 0.00292 2e-5 0.00404 5.177e-4 0.00146 7.279e-4 0.00259 8.964e-4 0.00481 1.024e-4 0.00135 3.241e-4 0.00256 6.118e-4 0.00333 3.9e-4 0.00105 4.516e-4 0.00161 4.545e-4 0.00413 0 0.00429-2.759e-4 0.010484-4.75e-4 0.010484-9.53e-5 0-2.82e-4 -2.042e-4 -4.156e-4 -4.536e-4zm0.00672-2.87e-4c-1.124e-4 -2.093e-4 -2.681e-4 -0.00106-3.466e-4 -0.00189-7.83e-5 -8.281e-4 -2.733e-4 -0.00214-4.328e-4 -0.00292-1.595e-4 -7.763e-4 -3.623e-4 -0.00228-4.507e-4 -0.00335-8.82e-5 -0.00107-2.137e-4 -0.00203-2.787e-4 -0.00213-3.088e-4 -4.996e-4 -7.429e-4 -0.00563-7.58e-4 -0.00895-1.42e-5 -0.00204-1.459e-4 -0.00461-3.039e-4 -0.00571-3.272e-4 -0.00228-3.553e-4 -0.00634-5.55e-5 -0.00798 1.11e-4 -6.099e-4 1.965e-4 -0.00147 1.888e-4 -0.0019-1.42e-5 -5.454e-4 1.11e-4 -9.1e-4 3.873e-4 -0.00117 2.209e-4 -2.057e-4 4.014e-4 -6.236e-4 4.014e-4 -9.289e-4 0-3.573e-4 2.513e-4 -8.213e-4 7.058e-4 -0.0013 3.88e-4 -4.114e-4 7.056e-4 -8.978e-4 7.056e-4 -0.00108 0-1.83e-4 2.722e-4 -9.089e-4 6.048e-4 -0.00161 4.872e-4 -0.00103 6.047e-4 -0.00155 6.047e-4 -0.00265 0-0.00115 8.26e-5 -0.00148 5.042e-4 -0.00205 2.771e-4 -3.758e-4 5.039e-4 -8.359e-4 5.039e-4 -0.00102 0-1.866e-4 1.423e-4 -4.572e-4 3.158e-4 -6.013e-4 5.277e-4 -4.38e-4 8.94e-4 -0.00134 8.94e-4 -0.00219 0-6.435e-4 -1.039e-4 -8.803e-4 -5.042e-4 -0.00114-6.087e-4 -3.989e-4 -6.371e-4 -6.177e-4 -1.024e-4 -7.875e-4 2.211e-4 -7.02e-5 5.387e-4 -2.642e-4 7.057e-4 -4.312e-4 4.074e-4 -4.075e-4 3.989e-4 -0.00197-1.42e-5 -0.00238-5.946e-4 -5.945e-4 -0.00228-2.741e-4 -0.00264 5.023e-4 -9.39e-5 2.035e-4 -4.861e-4 5.802e-4 -8.702e-4 8.371e-4 -0.00136 9.081e-4 -0.00152 0.00272-3.633e-4 0.00399 6.578e-4 7.198e-4 0.00116 0.00155 0.00116 0.00191 0 1.703e-4 -1.927e-4 5.022e-4 -4.28e-4 7.376e-4 -3.704e-4 3.703e-4 -5.754e-4 4.107e-4 -0.00152 2.997e-4 -6.006e-4 -7.06e-5 -0.00126-4.09e-5 -0.00146 6.6e-5 -1.998e-4 1.069e-4 -7.52e-4 7.092e-4 -0.00123 0.00134l-8.635e-4 0.00114-0.00102-1.208e-4c-0.00157-1.854e-4 -0.00165-3.547e-4 -0.00135-0.00259 2.933e-4 -0.00217 2.953e-4 -0.00366 0-0.0042-1.11e-4 -2.081e-4 -2.026e-4 -0.00139-2.026e-4 -0.00262 0-0.00229-4.796e-4 -0.00447-0.00109-0.00495-1.408e-4 -1.11e-4 -3.093e-4 -5.931e-4 -3.73e-4 -0.00107-8.82e-5 -6.566e-4 -3.035e-4 -0.00105-8.808e-4 -0.00161-7.629e-4 -7.412e-4 -0.00155-0.00125-0.00194-0.00125-2.91e-4 0-7.09e-4 5.628e-4 -0.00116 0.00156-4.773e-4 0.00106-0.00101 0.00112-0.00263 3.024e-4 -0.00104-5.218e-4 -0.00115-6.633e-4 -0.00203-0.0024l-9.297e-4 -0.00185-2.98e-4 -0.0094-9.204e-4 -0.00172c-5.063e-4 -9.442e-4 -0.00105-0.00196-0.0012-0.00226-4.408e-4 -8.608e-4 -0.00108-0.00317-0.00125-0.00449-1.909e-4 -0.00151-5.819e-4 -0.00227-0.0018-0.00354-7.289e-4 -7.563e-4 -0.0011-9.95e-4 -0.00156-9.95e-4 -3.314e-4 0-0.00101-2.595e-4 -0.00151-5.767e-4 -8.133e-4 -5.159e-4 -9.699e-4 -7.45e-4 -0.00148-0.00217-3.145e-4 -8.748e-4 -7.053e-4 -0.00186-8.685e-4 -0.00218-5.278e-4 -0.00105-0.00109-0.00399-0.00122-0.00639-1.283e-4 -0.0021528-1.816e-4 -0.0023888-6.182e-4 -0.0027416l-4.777e-4 -3.862e-4 5.002e-4 -3.278e-4c2.752e-4 -1.803e-4 5.538e-4 -5.834e-4 6.194e-4 -8.958e-4 1.281e-4 -6.111e-4 0.00137-0.00207 0.00209-0.00245 2.423e-4 -1.286e-4 8.854e-4 -2.34e-4 0.00143-2.34e-4 8.641e-4 0 0.00102 6.49e-5 0.00122 5.135e-4 1.294e-4 2.824e-4 2.34e-4 6.765e-4 2.34e-4 8.757e-4s1.814e-4 8.895e-4 4.031e-4 0.00153c2.218e-4 6.446e-4 4.033e-4 0.00146 4.033e-4 0.00182 0 6.822e-4 4.447e-4 0.00235 9.227e-4 0.00347 1.707e-4 3.984e-4 6.978e-4 9.303e-4 0.00134 0.00136 5.837e-4 3.847e-4 0.00147 9.862e-4 0.00197 0.00134 4.99e-4 3.504e-4 0.00132 9.199e-4 0.00181 0.00127 4.989e-4 3.457e-4 9.979e-4 7.262e-4 0.00111 8.456e-4 1.11e-4 1.194e-4 5.824e-4 5.087e-4 0.00105 8.651e-4 4.652e-4 3.565e-4 1e-3 9.981e-4 0.00119 0.00143 2.235e-4 5.063e-4 6.212e-4 9.34e-4 0.00114 0.00123 4.381e-4 2.462e-4 0.00103 7.071e-4 0.00131 0.00102 2.824e-4 3.171e-4 6.72e-4 6.268e-4 8.657e-4 6.882e-4 5.717e-4 1.815e-4 8.413e-4 0.00115 7.404e-4 0.00265-5.12e-5 7.58e-4 -1.266e-4 0.00156-1.684e-4 0.00178-6.98e-5 3.672e-4 2.13e-5 3.991e-4 0.00101 3.567e-4 5.984e-4 -2.56e-5 0.0013-1.882e-4 0.00157-3.612e-4 5.852e-4 -3.834e-4 7.845e-4 -2.815e-4 9.366e-4 4.789e-4 1.509e-4 7.542e-4 6.41e-4 9.369e-4 0.00115 4.283e-4 2.992e-4 -2.992e-4 3.987e-4 -6.717e-4 3.987e-4 -0.00149 0-0.00126-3.29e-4 -0.00173-0.00122-0.00173-4.849e-4 0-6.412e-4 -1.279e-4 -8.929e-4 -7.303e-4 -3.486e-4 -8.344e-4 -4.014e-4 -0.00305-9.81e-5 -0.00414 1.124e-4 -4.044e-4 4.294e-4 -8.828e-4 7.046e-4 -0.00106 2.75e-4 -1.803e-4 5.001e-4 -4.164e-4 5.001e-4 -5.247e-4s1.885e-4 -3.855e-4 4.189e-4 -6.158e-4c2.705e-4 -2.705e-4 3.678e-4 -5.382e-4 2.747e-4 -7.56e-4 -1.499e-4 -3.514e-4 -3.833e-4 -0.00166-6.834e-4 -0.00383-1.152e-4 -8.31e-4 -3.701e-4 -0.00157-7.347e-4 -0.00212-3.072e-4 -4.639e-4 -8.193e-4 -0.00134-0.00114-0.00195-3.184e-4 -6.099e-4 -7.387e-4 -0.00125-9.338e-4 -0.00141-4.902e-4 -4.179e-4 -0.00103-0.00133-0.00103-0.00173 0-6.835e-4 -0.00215-0.00428-0.0037-0.00619-0.00182-0.00225-0.00311-0.00345-0.0045-0.00417-0.00125-6.552e-4 -0.00139-7.571e-4 -0.00234-0.00171-4.413e-4 -4.435e-4 -0.00102-0.00129-0.00128-0.00188-2.644e-4 -5.89e-4 -8.828e-4 -0.00148-0.00137-0.00198-4.915e-4 -4.985e-4 -0.00128-0.00151-0.00176-0.00226l-8.675e-4 -0.00135v-0.00646l7.386e-4 -0.0016c4.061e-4 -8.773e-4 9.051e-4 -0.00169 0.00111-0.0018 2.038e-4 -1.131e-4 7.916e-4 -6.031e-4 0.00131-0.00109 5.15e-4 -4.861e-4 0.0012-0.00108 0.00151-0.00133 3.167e-4 -2.444e-4 0.00103-8.963e-4 0.00159-0.00145 0.00232-0.0023 0.00314-0.00272 0.00601-0.00311 0.00176-2.346e-4 0.00336-5.64e-5 0.00405 4.531e-4 2.099e-4 1.534e-4 4.05e-4 7.496e-4 5.268e-4 0.00161l1.933e-4 0.00137-8.432e-4 0.00155c-4.637e-4 8.546e-4 -0.00108 0.00184-0.00136 0.0022-2.849e-4 3.549e-4 -6.737e-4 8.539e-4 -8.64e-4 0.00111-1.901e-4 2.55e-4 -6.471e-4 8.346e-4 -0.00102 0.00129-3.682e-4 4.535e-4 -7.928e-4 0.0012-9.433e-4 0.00165-2.403e-4 7.28e-4 -2.341e-4 8.861e-4 5.12e-5 0.00129 1.787e-4 2.546e-4 6.076e-4 8.711e-4 9.53e-4 0.00137 3.455e-4 4.99e-4 9.989e-4 0.00125 0.00145 0.00166 7.354e-4 6.747e-4 9.389e-4 7.56e-4 0.00189 7.56e-4 9.066e-4 0 0.00118-9.43e-5 0.00178-6.257e-4 3.92e-4 -3.441e-4 7.128e-4 -7.16e-4 7.128e-4 -8.263e-4 0-1.105e-4 -2.747e-4 -4.571e-4 -6.102e-4 -7.706e-4 -4.342e-4 -4.056e-4 -7.3e-4 -9.958e-4 -0.00103-0.00205-8.661e-4 -0.00308-7e-4 -0.00489 5.854e-4 -0.00637 7.412e-4 -8.583e-4 7.618e-4 -8.668e-4 0.0023-9.556e-4l0.00156-8.97e-5 5.305e-4 9.052e-4c3.208e-4 5.475e-4 6.757e-4 9.053e-4 8.979e-4 9.053e-4 7.46e-4 0 0.00237-1e-3 0.0028-0.00173 5.521e-4 -9.357e-4 0.00222-0.0017 0.0037-0.0017 0.00116 2.8e-6 0.00286 4.497e-4 0.00336 8.819e-4 1.743e-4 1.523e-4 5.892e-4 4.096e-4 9.219e-4 5.716e-4 8.806e-4 4.291e-4 0.00443 0.00104 0.00519 8.908e-4 3.605e-4 -6.92e-5 0.00106-2.131e-4 0.00156-3.2e-4 0.00156-3.352e-4 0.00582-2.397e-4 0.00679 1.521e-4 9.01e-4 3.667e-4 0.00201 0.00159 0.00222 0.00244 6.97e-5 2.865e-4 3.428e-4 0.00102 6.077e-4 0.00162 4.684e-4 0.00107 4.791e-4 0.00122 3.94e-4 0.00534-1.366e-4 0.00665-3.507e-4 0.00738-0.00245 0.00827-6.663e-4 2.828e-4 -0.00149 5.139e-4 -0.00182 5.136e-4 -8.107e-4 -8e-7 -0.00276 7.238e-4 -0.00297 0.00111-9.39e-5 1.677e-4 -3.702e-4 3.049e-4 -6.141e-4 3.051e-4 -2.44e-4 1e-7 -0.00133 5.445e-4 -0.00241 0.00121-0.00108 6.652e-4 -0.00204 0.00121-0.00214 0.00121-9.39e-5 0-5.694e-4 2.962e-4 -0.00106 6.583e-4 -4.872e-4 3.621e-4 -0.00121 8.053e-4 -0.0016 9.85e-4 -8.346e-4 3.816e-4 -0.00295 0.00225-0.0031 0.00275-5.97e-5 1.89e-4 -3.134e-4 4.335e-4 -5.633e-4 5.434e-4 -2.498e-4 1.1e-4 -4.869e-4 3.732e-4 -5.269e-4 5.851e-4 -7.82e-5 4.166e-4 -0.00172 0.00213-0.00204 0.00213-1.067e-4 0-3.348e-4 2.697e-4 -5.053e-4 5.995e-4 -1.704e-4 3.297e-4 -8.759e-4 0.00105-0.00157 0.00161-6.916e-4 5.537e-4 -0.00153 0.00123-0.00187 0.0015-3.347e-4 2.694e-4 -0.00105 0.00132-0.00159 0.00235l-9.783e-4 0.00186 4.175e-4 5.343e-4c0.00148 0.0019 0.00151 0.00195 0.00171 0.00436 1.612e-4 0.00194 1.408e-4 0.00244-1.352e-4 0.00325-4.007e-4 0.00118-4.157e-4 0.00214-4.41e-5 0.00286 1.55e-4 2.995e-4 3.479e-4 0.00108 4.29e-4 0.00172 8.11e-5 6.504e-4 3.964e-4 0.00164 7.03e-4 0.00222 5.791e-4 0.00108 0.00184 0.00307 0.00221 0.00351 3.117e-4 3.587e-4 0.00192 3.188e-4 0.0023-5.69e-5 4.33e-4 -4.329e-4 6.108e-4 -0.00158 3.277e-4 -0.0021-1.295e-4 -2.421e-4 -1.816e-4 -5.808e-4 -1.153e-4 -7.526e-4 6.55e-5 -1.719e-4 2.59e-4 -9.857e-4 4.29e-4 -0.00181 4.959e-4 -0.0024 0.00209-0.00516 0.00395-0.00686 1.465e-4 -1.333e-4 3.699e-4 -3.602e-4 4.963e-4 -5.041e-4 0.00121-0.00138 0.00409-0.0033 0.00548-0.00365 0.00155-3.942e-4 0.00343-0.00161 0.00396-0.00258 2.22e-4 -4.004e-4 8.119e-4 -0.00125 0.00131-0.00189 4.99e-4 -6.379e-4 0.00122-0.00167 0.00161-0.0023l7.056e-4 -0.00114 6.55e-5 -0.00311c4.84e-5 -0.00228 1.423e-4 -0.00322 3.529e-4 -0.00352 1.582e-4 -2.259e-4 2.889e-4 -6.4e-4 2.905e-4 -9.202e-4 0-8.454e-4 4.502e-4 -0.00148 0.00117-0.00167 4.771e-4 -1.235e-4 7.494e-4 -3.584e-4 9.498e-4 -8.191e-4 2.501e-4 -5.753e-4 2.817e-4 -5.938e-4 2.887e-4 -1.691e-4 0 2.74e-4 2.958e-4 7.457e-4 6.845e-4 0.00111 3.735e-4 3.489e-4 7.312e-4 9.188e-4 7.984e-4 0.00127 6.69e-5 3.519e-4 6.243e-4 0.00169 0.00124 0.00296l0.00112 0.00232v0.0026c0 0.00401-5.55e-5 0.00423-0.0014 0.00561-6.31e-4 6.487e-4 -0.00152 0.00145-0.00197 0.00178-4.526e-4 3.326e-4 -0.00101 9.677e-4 -0.00124 0.00141-2.317e-4 4.436e-4 -9.738e-4 0.00158-0.00165 0.00252-0.00123 0.00171-0.00339 0.00589-0.00423 0.00817-6.335e-4 0.00172-8.563e-4 0.00343-6.036e-4 0.00461 2.049e-4 9.6e-4 1.945e-4 9.97e-4 -4.991e-4 0.00176-4.47e-4 4.948e-4 -7.086e-4 9.885e-4 -7.092e-4 0.00134-1.4e-6 0.00151-0.00302 0.00434-0.00588 0.0055-7.315e-4 2.985e-4 -8.015e-4 5.442e-4 -9.22e-4 0.00324-9.68e-5 0.00217-7.54e-5 0.00236 2.949e-4 0.00262 2.199e-4 1.55e-4 5.599e-4 5.995e-4 7.557e-4 9.876e-4 1.958e-4 3.88e-4 5.444e-4 9.116e-4 7.746e-4 0.00116 3.752e-4 4.103e-4 3.926e-4 5.299e-4 1.675e-4 0.00115-1.806e-4 4.993e-4 -1.915e-4 8.065e-4 -3.84e-5 0.00109 1.167e-4 2.182e-4 2.123e-4 0.00139 2.123e-4 0.0026 0 0.00193-6.41e-5 0.00235-5.182e-4 0.00338-2.849e-4 6.443e-4 -9.794e-4 0.00168-0.00154 0.00229-0.00128 0.0014-0.00157 0.00208-0.00157 0.00371 0 9.28e-4 -8.97e-5 0.00137-3.163e-4 0.00155-2.46e-4 2.04e-4 -2.867e-4 4.79e-4 -1.827e-4 0.00123 8.82e-5 6.409e-4 5.97e-5 9.718e-4 -8.25e-5 9.718e-4 -1.196e-4 0-4e-4 3.402e-4 -6.244e-4 7.561e-4 -2.242e-4 4.158e-4 -5.452e-4 9.459e-4 -7.133e-4 0.00118-2.776e-4 3.836e-4 -2.683e-4 4.69e-4 1.01e-4 9.391e-4 5.332e-4 6.778e-4 5.133e-4 8.263e-4 -9.1e-5 6.747e-4 -7.25e-4 -1.82e-4 -0.00128 6.854e-4 -9.674e-4 0.00151 1.608e-4 4.261e-4 1.592e-4 7.471e-4 0 0.00118-1.72e-4 4.557e-4 -1.652e-4 7.69e-4 2.84e-5 0.0013 1.698e-4 4.693e-4 1.904e-4 8.239e-4 6.26e-5 0.00106-1.053e-4 1.977e-4 -2.548e-4 7.758e-4 -3.311e-4 0.00128-1.109e-4 7.359e-4 -6.68e-5 9.964e-4 2.096e-4 0.00127 3.092e-4 3.093e-4 3.185e-4 4.386e-4 8.26e-5 0.00115-2.032e-4 6.158e-4 -2.128e-4 9.561e-4 -4.13e-5 0.00145 6.43e-4 0.00184 9.149e-4 0.00693 4.197e-4 0.00786-1.28e-4 2.422e-4 -7.184e-4 0.00101-0.00131 0.00171-5.921e-4 6.993e-4 -0.00108 0.00142-0.00108 0.00159 0 1.77e-4 -2.902e-4 9.204e-4 -6.451e-4 0.00165-4.285e-4 8.835e-4 -6.955e-4 0.0018-7.954e-4 0.00274-4.253e-4 0.00399-5.537e-4 0.00588-5.628e-4 0.00827-1.43e-5 0.00258-3.346e-4 0.00568-6.305e-4 0.00602-8.25e-5 9.53e-5 -2.43e-4 1.4e-6 -3.55e-4 -2.077e-4zm0.00449-0.05522c2.305e-4 -2.306e-4 3.167e-4 -7.204e-4 3.167e-4 -0.0018 0-0.00164-2.571e-4 -0.00212-0.00114-0.00212-5.865e-4 0-0.00209 0.00144-0.00209 2e-3 0 1.963e-4 2.496e-4 6.354e-4 5.545e-4 9.759e-4s6.713e-4 7.622e-4 8.143e-4 9.371e-4c3.335e-4 4.081e-4 0.00113 4.088e-4 0.00154 1.3e-6zm-0.011168-0.065719c3.605e-4 -4.345e-4 -3.42e-5 -7.845e-4 -6.979e-4 -6.18e-4 -8.365e-4 2.099e-4 -6.58e-4 7.26e-4 3.133e-4 9.056e-4 6.97e-5 1.28e-5 2.426e-4 -1.166e-4 3.846e-4 -2.876e-4zm-0.00804 0.11645c-2.468e-4 -4.06e-4 -4.628e-4 -0.00121-5.367e-4 -0.00201-6.83e-5 -7.305e-4 -3.005e-4 -0.00188-5.166e-4 -0.00255-2.179e-4 -6.784e-4 -3.95e-4 -0.0018-3.977e-4 -0.00252 0-0.00128-5.27e-5 -0.00155-7.057e-4 -0.00392-5.42e-4 -0.00197-7.361e-4 -0.0049-3.743e-4 -0.00567l3.014e-4 -6.35e-4 0.00135 1.046e-4c0.00166 1.284e-4 0.00239 5.79e-4 0.00258 0.00159 2.554e-4 0.00136-7.11e-5 0.011161-4.117e-4 0.012362-1.721e-4 6.063e-4 -3.128e-4 0.00156-3.128e-4 0.00213 0 5.646e-4 -1.266e-4 0.0012-2.8e-4 0.00141-2.664e-4 3.643e-4 -2.999e-4 3.499e-4 -6.931e-4 -2.965e-4zm-0.031486-0.012233c-0.0016-5.111e-4 -0.00305-0.00136-0.00391-0.00228-4.576e-4 -4.93e-4 -0.00118-0.00122-0.00161-0.00161-0.00164-0.00151-0.0024-0.00239-0.00357-0.0041-6.604e-4 -9.733e-4 -0.0012-0.00193-0.0012-0.00213 0-2.009e-4 -4.536e-4 -0.00126-0.00101-0.00235-5.545e-4 -0.00109-0.00101-0.00211-0.00101-0.00226 0-1.543e-4 -1.746e-4 -6.16e-4 -3.88e-4 -0.00103-2.135e-4 -4.1e-4 -4.996e-4 -0.00134-6.356e-4 -0.00206-3.205e-4 -0.0017-3.284e-4 -0.00879-1.43e-5 -0.010383 1.324e-4 -6.653e-4 3.216e-4 -0.00184 4.218e-4 -0.00262 9.96e-5 -7.762e-4 2.752e-4 -0.00182 3.89e-4 -0.00232 1.138e-4 -4.99e-4 2.11e-4 -0.00144 2.158e-4 -0.00208 0-6.452e-4 1.454e-4 -0.00219 3.124e-4 -0.00343s4.059e-4 -0.00302 5.311e-4 -0.00396c1.719e-4 -0.00129 4.725e-4 -0.00225 0.00123-0.00393 5.505e-4 -0.00122 0.00111-0.00236 0.00125-0.00253 5.457e-4 -6.59e-4 0.00213-0.00338 0.00213-0.00366 0-3.251e-4 0.00147-0.00242 0.00261-0.00373 4.016e-4 -4.604e-4 9.069e-4 -0.00119 0.00112-0.00161 2.158e-4 -4.267e-4 6.717e-4 -0.00109 0.00101-0.00148 6.506e-4 -7.388e-4 7.549e-4 -8.83e-4 0.00221-0.00306 4.951e-4 -7.39e-4 9.688e-4 -0.00137 0.00105-0.00141 2.148e-4 -9.51e-5 8.908e-4 -0.0011 0.00154-0.00229 4.727e-4 -8.657e-4 7.27e-4 -0.00109 0.0018-0.00156 0.00117-5.207e-4 0.00143-5.567e-4 0.00401-5.544e-4 0.00152 1.4e-6 0.00297 8.35e-5 0.00323 1.827e-4 2.609e-4 9.92e-5 0.00129 9.676e-4 0.00228 0.00193 9.939e-4 9.623e-4 0.00199 0.00191 0.00221 0.00212 8.611e-4 7.841e-4 0.00474 0.00498 0.00523 0.00565 9.496e-4 0.00132 0.00102 0.00155 7.568e-4 0.00254-1.323e-4 4.959e-4 -1.834e-4 0.00126-1.124e-4 0.00171 9.1e-5 5.667e-4 4.12e-5 9.068e-4 -1.662e-4 0.00115-1.624e-4 1.912e-4 -5.299e-4 7.597e-4 -8.169e-4 0.00126-5.565e-4 9.758e-4 -0.00299 0.00311-0.00433 0.00379-4.353e-4 2.221e-4 -0.00125 8.412e-4 -0.00182 0.00138-5.631e-4 5.347e-4 -0.00142 0.00128-0.0019 0.00165-4.828e-4 3.732e-4 -0.0011 0.00107-0.00138 0.00154-2.772e-4 4.74e-4 -0.00109 0.00139-0.00181 0.00203-7.208e-4 6.428e-4 -0.00149 0.0014-0.00171 0.00169-6.549e-4 8.503e-4 -0.00361 0.00433-0.00387 0.00455-1.295e-4 1.11e-4 -5.632e-4 7.006e-4 -9.653e-4 0.00131-4.021e-4 6.099e-4 -9.929e-4 0.00147-0.00131 0.00192-5.929e-4 8.218e-4 -8.757e-4 0.00136-0.0025 0.00474-0.00105 0.00219-0.00136 3e-3 -0.00183 0.00484-1.851e-4 7.207e-4 -4.222e-4 0.00163-5.269e-4 0.00202-4.324e-4 0.0016-2.511e-4 0.00291 7.214e-4 0.00519 5.067e-4 0.00119 0.00107 0.00239 0.00126 0.00267 1.844e-4 2.772e-4 5.005e-4 8.653e-4 7.026e-4 0.00131 2.02e-4 4.415e-4 4.826e-4 9.405e-4 6.238e-4 0.00111 1.408e-4 1.683e-4 4.982e-4 8.776e-4 7.939e-4 0.00158 7.062e-4 0.00167 0.00164 0.0028 0.00278 0.00338 5.13e-4 2.601e-4 9.855e-4 6.109e-4 0.00105 7.796e-4 6.55e-5 1.687e-4 8.656e-4 6.759e-4 0.00178 0.00113 9.14e-4 4.513e-4 0.00179 9.286e-4 0.00195 0.00106 1.59e-4 1.32e-4 0.00162 3.493e-4 0.00324 4.83e-4 0.0032 2.637e-4 0.00479 4.449e-4 0.00526 5.987e-4 2.689e-4 8.82e-5 2.689e-4 1.166e-4 0 2.639e-4 -6.209e-4 3.399e-4 -0.00506 8.342e-4 -0.00837 9.317e-4 -0.00188 5.55e-5 -0.00447 1.337e-4 -0.00574 1.744e-4 -0.00164 5.27e-5 -0.00258-1.42e-5 -0.00323-2.165e-4zm0.08387-6.582e-4c-3.882e-4 -8.97e-5 -0.00143-3.159e-4 -0.00232-5.02e-4 -0.00156-3.263e-4 -0.00262-8.479e-4 -0.00262-0.00128 0-1.148e-4 7.258e-4 -5.901e-4 0.00161-0.00106 8.872e-4 -4.662e-4 0.00198-0.00114 0.00242-0.0015 4.437e-4 -3.589e-4 0.00126-9.096e-4 0.00181-0.00122 0.00198-0.00112 0.00272-0.0022 0.00272-0.00394 0-5.661e-4 1.082e-4 -0.00123 2.399e-4 -0.00147 1.323e-4 -2.422e-4 3.577e-4 -0.00117 5.019e-4 -0.00205 1.44e-4 -8.871e-4 3.506e-4 -0.00216 4.59e-4 -0.00282 1.787e-4 -0.0011 1.427e-4 -0.00137-3.865e-4 -0.00293-5.337e-4 -0.00157-7.022e-4 -0.00236-0.0012-0.00564-3.447e-4 -0.00227-9.169e-4 -0.00362-0.00273-0.00645-0.00139-0.00217-0.00201-0.00327-0.0025-0.00444-2.564e-4 -6.098e-4 -8.533e-4 -0.00152-0.00133-0.00202-4.731e-4 -4.99e-4 -0.00122-0.00141-0.00167-0.00202-4.438e-4 -6.099e-4 -0.00101-0.00129-0.00126-0.00151-2.515e-4 -2.218e-4 -8.065e-4 -8.737e-4 -0.00123-0.00145-4.27e-4 -5.751e-4 -0.00125-0.00136-0.00184-0.00175-5.84e-4 -3.876e-4 -0.00151-0.00122-0.00205-0.00185-5.432e-4 -6.291e-4 -0.00125-0.0013-0.00157-0.0015-3.194e-4 -1.943e-4 -0.00117-0.00107-0.00189-0.00194-0.00161-0.00195-0.00194-0.00224-0.0029-0.0025-5.992e-4 -1.613e-4 -8.925e-4 -4.217e-4 -0.00141-0.00125-5.484e-4 -8.821e-4 -6.162e-4 -0.00112-4.335e-4 -0.00152 1.195e-4 -2.616e-4 2.172e-4 -7.663e-4 2.178e-4 -0.00112 0-3.551e-4 2.245e-4 -0.00101 4.977e-4 -0.00145 2.732e-4 -4.436e-4 4.994e-4 -9.154e-4 5.03e-4 -0.00105 1.42e-5 -4.425e-4 0.00274-0.00305 0.00335-0.00321 3.249e-4 -8.12e-5 8.205e-4 -2.912e-4 0.0011-4.665e-4 8.432e-4 -5.26e-4 0.00222-0.00216 0.00243-0.00287 1.223e-4 -4.287e-4 5.835e-4 -9.964e-4 0.00128-0.00158 5.978e-4 -4.989e-4 0.00116-0.00107 0.00126-0.00127 9.53e-5 -2.005e-4 7.164e-4 -5.91e-4 0.00138-8.68e-4 0.00111-4.632e-4 0.00137-4.93e-4 0.00321-3.731e-4 0.00175 1.14e-4 0.00224 2.359e-4 0.00391 9.688e-4 0.00187 8.226e-4 0.00249 0.0013 0.00439 0.00339 3.378e-4 3.717e-4 0.00134 0.00103 0.00222 0.00146 8.819e-4 4.287e-4 0.00186 9.618e-4 0.00217 0.00118 5.343e-4 3.794e-4 5.653e-4 4.783e-4 4.824e-4 0.00154-1.323e-4 0.00169-5.7e-4 0.00259-0.00184 0.00376-7.988e-4 7.375e-4 -0.0011 0.00115-0.00101 0.00138 1.646e-4 4.292e-4 5.741e-4 5.093e-4 0.00301 5.878e-4 0.00149 4.79e-5 0.00231 1.813e-4 0.00312 5.069e-4 0.00209 8.33e-4 0.00223 0.00105 0.00261 0.00397 9.96e-5 7.762e-4 2.768e-4 0.00177 3.952e-4 0.00222 1.181e-4 4.435e-4 2.174e-4 0.00136 2.199e-4 0.00204 0 6.789e-4 1.941e-4 0.00195 4.255e-4 0.00282 2.855e-4 0.00108 4.475e-4 0.00243 5.047e-4 0.00421 8.11e-5 0.00253 2.531e-4 0.00447 6.963e-4 0.00786 1.167e-4 8.87e-4 2.651e-4 0.00206 3.315e-4 0.0026 6.69e-5 5.452e-4 3.346e-4 0.00131 5.959e-4 0.00169 2.614e-4 3.851e-4 4.751e-4 7.769e-4 4.751e-4 8.707e-4s5.33e-4 4.396e-4 0.00118 7.684e-4c0.00107 5.392e-4 0.00144 9.071e-4 0.00144 0.00143 0 3.397e-4 -5.509e-4 -3.38e-5 -7.747e-4 -5.252e-4 -2.563e-4 -5.625e-4 -8.596e-4 -6.443e-4 -0.00132-1.797e-4 -2.569e-4 2.568e-4 -3.048e-4 7.926e-4 -2.665e-4 0.00297 3.55e-5 0.00201-4.56e-5 0.00306-3.257e-4 0.00427-3.757e-4 0.00163-0.00206 0.00535-0.00285 0.00633-2.369e-4 2.896e-4 -8.252e-4 0.00134-0.00131 0.00234-7.781e-4 0.00161-0.00205 0.0035-0.00331 0.00491-4.175e-4 4.7e-4 -0.00291 0.0024-0.00401 0.00311-4.545e-4 2.925e-4 -0.0011 3.793e-4 -0.00333 4.442e-4 -0.00152 4.41e-5 -0.00308 0-0.00347-8.25e-5zm0.00762-0.048222c6.841e-4 -2.384e-4 9.476e-4 -7.558e-4 7.619e-4 -0.0015-2.857e-4 -0.00114-0.00123-0.00142-0.00204-6.135e-4 -5.717e-4 5.718e-4 -6.568e-4 0.00153-1.78e-4 0.00201 3.745e-4 3.744e-4 6.198e-4 3.91e-4 0.00146 9.83e-5zm-0.050438 0.027936c-9.68e-5 -2.498e-4 -1.99e-5 -3.111e-4 3.274e-4 -2.619e-4 5.114e-4 7.27e-5 5.876e-4 4.36e-4 1.11e-4 5.278e-4 -1.723e-4 3.32e-5 -3.695e-4 -8.65e-5 -4.384e-4 -2.659e-4zm0.017211-0.031548c0-1.11e-4 9.11e-5 -2.016e-4 2.016e-4 -2.016e-4 1.11e-4 0 2.016e-4 9.06e-5 2.016e-4 2.016e-4s-9.1e-5 2.016e-4 -2.016e-4 2.016e-4c-1.11e-4 0-2.016e-4 -9.06e-5 -2.016e-4 -2.016e-4zm0.00495-9.905e-4c-2.098e-4 -3.393e-4 8.68e-5 -7.06e-4 3.545e-4 -4.383e-4 1.578e-4 1.578e-4 1.578e-4 2.805e-4 0 4.383e-4 -1.577e-4 1.579e-4 -2.571e-4 1.579e-4 -3.545e-4 0zm-0.025514-0.023292c0-1.598e-4 9.11e-5 -3.466e-4 2.017e-4 -4.151e-4 1.109e-4 -6.85e-5 2.016e-4 6.22e-5 2.016e-4 2.905e-4s-9.11e-5 4.151e-4 -2.016e-4 4.151e-4c-1.11e-4 0-2.017e-4 -1.307e-4 -2.017e-4 -2.905e-4zm0.033998-0.020878c1.753e-4 -0.00113 2.308e-4 -0.00121 8.956e-4 -0.00121h6.325e-4l-5.757e-4 5.605e-4c-3.168e-4 3.084e-4 -6.851e-4 7.393e-4 -8.186e-4 9.577e-4 -2.11e-4 3.45e-4 -2.285e-4 3.046e-4 -1.338e-4 -3.082e-4z" fill="#fff" opacity=".2" stroke-width=".0014229"/>
</svg>
