<svg width="48" height="48" version="1.1" viewBox="0 0 4.2333 4.2333" xmlns="http://www.w3.org/2000/svg" (click)="navigateBack()">
 <path d="m2.1813 4.2237c-0.00106-0.0053-0.00429-0.030504-0.00718-0.056004-0.011204-0.098935 0.00747-0.42486 0.02975-0.51922 0.010778-0.045645 0.00944-0.22793-0.00393-0.53647-0.00423-0.097678-0.00522-0.10578-0.017026-0.13925-0.012192-0.034571-0.012536-0.037813-0.012618-0.11891-5.18e-5 -0.051098-0.0025-0.099193-0.00634-0.12426-0.014221-0.092999-0.01949-0.15194-0.019803-0.22151l-3.303e-4 -0.073501 0.019925-0.040045c0.010959-0.022025 0.021776-0.043489 0.024039-0.0477 0.011945-0.022223 0.035523-0.10482 0.052855-0.18516 0.00407-0.018853 0.00927-0.040502 0.011572-0.048109 0.0023-0.00761 0.00575-0.023032 0.00767-0.034278 0.0063-0.03686 0.01787-0.080219 0.038706-0.14508 0.016498-0.051357 0.02411-0.10753 0.017348-0.12802-0.00275-0.00833-0.00655-0.015148-0.00844-0.015148s-0.019579 0.015961-0.039302 0.03547c-0.019722 0.019508-0.045127 0.042164-0.056456 0.050346-0.065399 0.047233-0.090147 0.073478-0.099926 0.10597-0.00831 0.027597-0.00735 0.043442 0.0041 0.067708 0.025653 0.05437 0.029251 0.1016 0.014018 0.18398-0.00392 0.021209-0.00966 0.055916-0.012761 0.077125-0.00572 0.039171-0.016131 0.070698-0.023349 0.070698-0.00904 0-0.012993-0.010145-0.028411-0.072841-0.00625-0.02541-0.013127-0.051143-0.028059-0.10498-0.00638-0.022992-0.0097-0.04768-0.010098-0.074983-5.745e-4 -0.039645 0.00228-0.052098 0.018899-0.082423 0.00623-0.011373 0.00487-0.03226-0.00295-0.045199-0.00387-0.0064-0.033438-0.037662-0.065713-0.069476-0.038914-0.038358-0.06326-0.066144-0.072273-0.082481-0.035261-0.06392-0.058245 0.00131-0.062544 0.17751l-0.00227 0.092888 0.018148 0.022407c0.01741 0.021497 0.02688 0.034429 0.056205 0.076753 0.00735 0.010605 0.014425 0.020245 0.015728 0.021424 0.0013 0.00118 0.00699 0.00985 0.012628 0.019281 0.00564 0.00943 0.011486 0.018103 0.012985 0.019281 0.00454 0.00357 0.025927 0.051167 0.034472 0.07671 0.00566 0.016916 0.00936 0.047335 0.01257 0.10325 0.0025 0.043597 0.00635 0.11108 0.00856 0.14997 0.0022 0.038884 0.00587 0.076483 0.00815 0.083553s0.0063 0.020567 0.00895 0.029993c0.00265 0.00943 0.00836 0.029672 0.012701 0.04499 0.00434 0.015318 0.010026 0.043276 0.012635 0.062129 0.00261 0.018853 0.00765 0.049216 0.011203 0.067474 0.00355 0.018258 0.00938 0.048144 0.012949 0.066414 0.011167 0.057154 0.011907 0.076118 0.00661 0.16947-0.00283 0.049959-0.00687 0.15254-0.00896 0.22795-0.013872 0.49965-0.023947 0.73494-0.032339 0.75519-0.00317 0.00766-0.0089 0.013925-0.012716 0.013925-0.00993 0-0.07553-0.052279-0.098394-0.078416-0.022318-0.025513-0.026799-0.041929-0.019958-0.073119 0.00755-0.034443 0.024866-0.21061 0.034794-0.35406 0.00382-0.05515 0.00759-0.10329 0.017462-0.22281 0.00243-0.029458 0.00623-0.081517 0.00844-0.11569 0.00221-0.034171 0.00598-0.073871 0.00839-0.088223 0.00464-0.027699 0.017082-0.24324 0.017167-0.29747 4.63e-5 -0.029856-0.0012-0.034336-0.017046-0.061459-0.021687-0.037113-0.025072-0.0411-0.11145-0.13129-0.084285-0.088-0.1105-0.11786-0.11742-0.13372-0.00343-0.00787-0.00403-0.021662-0.00187-0.042848 0.00175-0.017182 0.00447-0.11608 0.00603-0.21977 0.00296-0.19615-0.00189-0.36015-0.011479-0.38777-0.00286-0.00825-0.013292-0.025601-0.023174-0.038563-0.03754-0.049235-0.043546-0.064839-0.048649-0.1264-0.00254-0.030636-0.00578-0.098121-0.0072-0.14997-0.00142-0.051845-0.00339-0.097222-0.00438-0.10084-0.00338-0.012359-0.025382-0.020317-0.076368-0.027624-0.078862-0.011301-0.079524-0.01175-0.22698-0.15374-0.04684-0.045103-0.087813-0.083547-0.091051-0.085431-0.0075-0.00436-0.0075-0.019799-1.72e-5 -0.040405 0.023644-0.065071 0.023735-0.063788-0.00795-0.11256-0.00995-0.015318-0.02246-0.037492-0.027798-0.049275-0.00534-0.011783-0.011405-0.024774-0.013482-0.028868-0.00799-0.015747-0.016504-0.044487-0.016564-0.055907-5.31e-5 -0.010163 0.00904-0.030029 0.017096-0.037341 0.00417-0.00379 0.016306-0.035681 0.023635-0.062129 0.00392-0.01414 0.00962-0.034385 0.012681-0.04499 0.00306-0.010605 0.00691-0.026994 0.00856-0.03642 0.00165-0.009426 0.0045-0.019067 0.00633-0.021424 0.00183-0.002357 0.00439-0.009105 0.00569-0.014997 0.00245-0.011102 0.013377-0.042887 0.019881-0.057844 0.00205-0.004713 0.00802-0.019174 0.01327-0.032136 0.012341-0.030472 0.023326-0.045727 0.03863-0.053641 0.011027-0.005702 0.01388-0.005643 0.02688 5.5616e-4 0.015927 0.007595 0.024583 0.019797 0.034741 0.048973 0.00772 0.022184 0.00926 0.11964 0.00233 0.14765-0.00542 0.021886-0.010495 0.1175-0.00699 0.13149 0.00692 0.02756 0.065219 0.077521 0.12315 0.10553 0.042476 0.020537 0.059751 0.032524 0.098236 0.068168 0.041979 0.03888 0.077102 0.066341 0.10926 0.085425 0.018936 0.011238 0.046543 0.022869 0.054277 0.022869 0.022117 0 0.047468 0.032808 0.061252 0.079268 0.00419 0.01414 0.010285 0.03204 0.013533 0.039779 0.00325 0.00774 0.00591 0.016962 0.00591 0.020495 0 0.00887 0.019301 0.046176 0.027341 0.052849 0.014304 0.011872 0.047959-0.00627 0.052221-0.028144 0.0013-0.00668 2.395e-4 -0.035276-0.00236-0.063555-0.010938-0.11905-0.043359-0.27712-0.068548-0.33421-0.018695-0.042369-0.02151-0.050168-0.02151-0.059593 0-0.005515-0.00289-0.018225-0.00643-0.028244-0.00353-0.010019-0.00643-0.024071-0.00643-0.031226 0-0.015427-0.010843-0.053599-0.022484-0.079149-0.010195-0.022377-0.058096-0.061014-0.075644-0.061014-0.00896 0-0.062721-0.027408-0.089024-0.045386-0.01456-0.009952-0.056979-0.042386-0.094264-0.072075s-0.074883-0.059271-0.083551-0.065738c-0.020077-0.014978-0.041284-0.04252-0.061021-0.079246l-0.015544-0.028926-0.00546-0.21886 0.036039-0.034286c0.038925-0.03703 0.095494-0.082395 0.11959-0.095904 0.013304-0.0074584 0.023619-0.0084248 0.091417-0.0085644l0.07642-1.5736e-4 0.010346 0.012022c0.013338 0.015498 0.013201 0.037349-3.942e-4 0.062961-0.00563 0.010605-0.012233 0.023664-0.014675 0.029021-0.00244 0.005357-0.011594 0.020782-0.020336 0.034278-0.00874 0.013496-0.019076 0.030619-0.022962 0.038051-0.00784 0.014984-0.019103 0.052299-0.016501 0.054648 0.00799 0.007213 0.056432 0.035049 0.089464 0.051406 0.066447 0.032904 0.068654 0.037612 0.048875 0.10425-0.013743 0.046299-0.019049 0.065714-0.020144 0.073717-0.0017 0.012422 0.079542 0.034526 0.090049 0.024501 0.00596-0.005684 0.020562-0.044197 0.042502-0.11208 0.00838-0.025923 0.017945-0.054909 0.021258-0.064414 0.00854-0.024488 0.00783-0.054739-0.00147-0.063154-0.00947-0.008564-0.039697-0.01854-0.067485-0.022273-0.011783-0.001583-0.028654-0.007588-0.037492-0.013345-0.015005-0.009775-0.016068-0.011875-0.016068-0.031744 0-0.036085 0.033171-0.11001 0.06282-0.13999 0.019311-0.019531 0.026353-0.022055 0.091431-0.032762 0.022388-0.0036835 0.048418-0.0086311 0.057844-0.010995 0.00943-0.0023636 0.030636-0.0072087 0.047132-0.010767 0.016496-0.0035582 0.040021-0.0088329 0.052276-0.011721 0.016867-0.0039754 0.02624-0.0040773 0.038563-4.192e-4 0.00895 0.002658 0.030741 0.0080281 0.048415 0.011934 0.017675 0.0039055 0.044618 0.013046 0.059874 0.020313 0.038982 0.018568 0.057847 0.017719 0.098662-0.0044377l0.032136-0.017445 0.08141-0.0028267c0.044776-0.0015547 0.086713-0.0046338 0.093193-0.0068425 0.036399-0.012405 0.038287-0.013651 0.036314-0.023971-0.00188-0.00984-0.00125-0.010038 0.031765-0.010038 0.029366 0 0.033684 9.7199e-4 0.033684 0.007583 0 0.00417 0.00819 0.018551 0.01821 0.031956 0.026191 0.035056 0.033263 0.056977 0.026103 0.08092-0.00309 0.010338-0.00566 0.023616-0.00571 0.029508-9.73e-5 0.012109 0.00956 0.043571 0.022758 0.074161 0.00516 0.011947 0.00898 0.03026 0.00911 0.043593 2.434e-4 0.02523 8.458e-4 0.024194-0.043135 0.074174-0.015425 0.017529-0.029315 0.038395-0.03374 0.050689-0.010393 0.02887-0.026634 0.062913-0.045792 0.095985-0.019161 0.033076-0.047625 0.053839-0.10849 0.079135-0.021209 0.008815-0.044347 0.018516-0.051417 0.021558-0.00707 0.003042-0.028098 0.006927-0.046729 0.008633l-0.033875 0.003103-0.037945 0.034022c-0.02087 0.018712-0.040786 0.039515-0.044258 0.046228-0.00347 0.006714-0.012608 0.01657-0.020302 0.021903-0.00769 0.005333-0.020811 0.015715-0.029149 0.023072-0.00834 0.007356-0.025691 0.0204-0.038563 0.028986-0.012872 0.008586-0.039141 0.028242-0.058376 0.04368s-0.036588 0.028102-0.038563 0.028143c-0.00556 1.144e-4 -0.021329 0.018194-0.024419 0.027988-0.00256 0.008132 0.00257 0.041893 0.014312 0.094053 0.00523 0.023259 0.00326 0.045097-0.00673 0.074612-0.00713 0.02106-0.00505 0.037615 0.00727 0.057892 0.015627 0.025705 0.01758 0.034139 0.015073 0.065123-0.00136 0.016787-0.00444 0.035711-0.00685 0.042055-0.00241 0.00634-0.00435 0.031172-0.00431 0.055174 6e-5 0.037243 0.00147 0.046086 0.00964 0.060328 0.00526 0.00918 0.013831 0.019485 0.019038 0.022903 0.0087 0.00571 0.010331 0.00528 0.020075-0.00523 0.010167-0.01097 0.013127-0.019713 0.026137-0.077207 0.02316-0.10235 0.02911-0.1096 0.13713-0.16722 0.021209-0.011312 0.044347-0.023804 0.051417-0.02776 0.00707-0.00396 0.034064-0.018416 0.059986-0.032133 0.079509-0.042073 0.094278-0.051483 0.12307-0.078411 0.025924-0.024248 0.062069-0.071939 0.079923-0.10545 0.014974-0.028106 0.036499-0.090461 0.043759-0.12676 0.00776-0.03878 0.015906-0.078154 0.020088-0.097042 0.00216-0.009776 0.00989-0.028318 0.017159-0.041205 0.00727-0.012887 0.016428-0.034775 0.020344-0.048639 0.018884-0.066854 0.029321-0.088892 0.051192-0.1081 0.017944-0.015755 0.023821-0.01662 0.034295-0.005046 0.00668 0.007384 0.00734 0.01386 0.0051 0.050346-0.00251 0.040924-0.012622 0.15107-0.018227 0.19851l-0.00281 0.023809 0.074324 0.068438 0.00249 0.070514c0.00137 0.038783 5e-3 0.078944 0.00808 0.089248l0.00559 0.018733-0.05121 0.051567c-0.083795 0.084371-0.10028 0.10609-0.15034 0.19804-0.011545 0.02121-0.022833 0.041455-0.025085 0.04499-0.00923 0.014491-0.046416 0.093613-0.053367 0.11355-0.00411 0.011783-0.00914 0.02528-0.011177 0.029993-0.00504 0.011663-0.019757 0.057514-0.022686 0.070698-0.00292 0.013139-0.014793 0.026046-0.067016 0.072841-0.084443 0.075665-0.097349 0.089456-0.10237 0.10938-0.010514 0.041757-0.0047 0.074035 0.024621 0.1366 0.017 0.036278 0.022455 0.06239 0.02425 0.11609 0.00135 0.040515-0.00627 0.1181-0.013693 0.13925-0.011308 0.032252-0.023969 0.057566-0.031524 0.063028-0.018469 0.013353-0.040442 0.13429-0.051219 0.28189-0.00206 0.028279-0.00579 0.0762-0.00828 0.10649-0.00249 0.03029-0.00345 0.065961-0.00214 0.079268 0.00444 0.044999 0.011524 0.083994 0.016844 0.092678 0.00291 0.00475 0.00765 0.017496 0.010524 0.028317 0.00436 0.016391 0.00412 0.023429-0.00145 0.042169-0.00893 0.030069-0.041669 0.073228-0.084963 0.112-0.01952 0.017483-0.03784 0.034687-0.040711 0.03823-0.00287 0.00354-0.00528 0.018281-0.00536 0.032749-1.992e-4 0.038451 0.00932 0.088051 0.030495 0.15892 0.011856 0.039676 0.013494 0.073306 0.016327 0.33538 0.00213 0.19688 0.00447 0.28068 0.00814 0.29136 0.00516 0.015023 0.011036 0.058486 0.017678 0.13068 0.00195 0.021209 0.00373 0.098683 0.00395 0.17216 3.95e-4 0.13111 2.254e-4 0.13387-0.00909 0.14782-0.011017 0.016514-0.075349 0.075559-0.091605 0.084077-0.00877 0.00459-0.010529 0.00796-0.00847 0.016176 0.00243 0.00968 0.00146 0.010376-0.014535 0.010376-0.014346 0-0.017453-0.00157-0.019067-0.00964zm0.24428-0.4649c-0.00375-0.13674-0.010361-0.24546-0.017533-0.28815-0.00337-0.020031-0.00724-0.075947-0.00862-0.12426-0.00281-0.099012-0.012981-0.22768-0.018879-0.23892-0.00858-0.016351-0.030513-0.157-0.030239-0.1939 1.826e-4 -0.024655 0.015031-0.046687 0.048726-0.072298 0.026219-0.019929 0.037314-0.020523 0.040278-0.00216 7.199e-4 0.00446 0.00392 0.017751 0.00712 0.029534s0.00903 0.033957 0.012959 0.049275c0.0073 0.028456 0.014542 0.055708 0.0239 0.08998 0.00725 0.026549 0.010095 0.15338 0.00407 0.18132-0.00997 0.046236-0.017053 0.16269-0.017379 0.28571-6.058e-4 0.22912-0.0076 0.33217-0.024935 0.36742-0.014193 0.028857-0.016684 0.018166-0.01947-0.083553zm-0.59116-0.22495c-0.00142-0.0053-0.00268-0.017353-0.00279-0.02678-1.149e-4 -0.00943-0.00297-0.029672-0.00634-0.04499s-0.00618-0.034599-0.00624-0.042848c-6.3e-5 -0.00825-0.00294-0.027529-0.00639-0.042848-0.00345-0.015318-0.00936-0.050988-0.013132-0.079268-0.00377-0.028279-0.0095-0.066842-0.012726-0.085695-0.029682-0.17325-0.032808-0.20637-0.03134-0.33207 0.00121-0.10386 0.00167-0.10919 0.00926-0.10789 0.014397 0.00247 0.058336 0.035538 0.093464 0.070337 0.032981 0.032672 0.03437 0.034827 0.032071 0.049777-0.00132 0.00859-0.00352 0.044548-0.00489 0.079898-0.00231 0.059809-0.0084 0.16662-0.019528 0.34278-0.00253 0.040062-0.00637 0.10158-0.00854 0.13671-0.00378 0.061262-0.00947 0.092521-0.016845 0.092521-0.0019 0-0.00462-0.00434-0.00604-0.00964zm-0.83394-0.42686c-0.022388-0.00153-0.042935-0.00421-0.04566-0.00595-0.00272-0.00174-0.016222-0.00498-0.029993-0.00718-0.11012-0.017653-0.22225-0.082145-0.28912-0.16629-0.023274-0.029287-0.075361-0.12699-0.082809-0.15533-0.00155-0.00589-0.00538-0.01746-0.00852-0.025709-0.00709-0.018616-0.017833-0.056547-0.022456-0.079268-0.00295-0.014513-0.00496-0.016934-0.013121-0.015798l-0.00963 0.00134v-0.19337c0-0.1914 8.75e-5 -0.19334 0.00857-0.19065 0.00658 0.00209 0.00956 1.063e-4 0.012854-0.00856 0.00236-0.0062 0.00428-0.016455 0.00427-0.022783-1.16e-5 -0.00633 0.0027-0.020181 0.00603-0.030785 0.00333-0.010605 0.00937-0.03085 0.013425-0.04499 0.00976-0.034002 0.022796-0.075034 0.027233-0.085695 0.00196-0.00471 0.00672-0.015865 0.010587-0.024783 0.00386-0.00892 0.00702-0.018034 0.00702-0.020259 0-0.0045 0.025036-0.060086 0.040507-0.089928 0.047515-0.091652 0.076229-0.14123 0.095534-0.16496 0.00192-0.00236 0.00818-0.011997 0.013926-0.021424 0.00574-0.00943 0.011961-0.019067 0.013821-0.021424 0.00186-0.00236 0.018607-0.02453 0.037216-0.049275 0.058403-0.077657 0.1598-0.18932 0.22967-0.25291 0.045773-0.041664 0.08858-0.079074 0.094168-0.082296 0.00552-0.00318 0.05443 0.027821 0.14443 0.091555 0.035119 0.024869 0.056169 0.036217 0.08998 0.048507 0.058617 0.021307 0.056562 0.020472 0.093713 0.038083 0.017841 0.00846 0.041364 0.023234 0.052275 0.032838 0.021434 0.018867 0.048142 0.060977 0.044574 0.070277-0.00121 0.00315-0.053932 0.048801-0.11716 0.10144-0.063228 0.052636-0.15545 0.13038-0.20494 0.17277-0.097549 0.083554-0.26613 0.24869-0.2891 0.2832-0.015006 0.02254-0.051537 0.083263-0.051537 0.085667 0 7.736e-4 -0.00675 0.015817-0.014997 0.03343-0.00825 0.017613-0.014997 0.034752-0.014997 0.038088 0 0.00334-0.00169 0.0079-0.00376 0.010135-0.00207 0.00224-0.00791 0.018532-0.012971 0.036206-0.00506 0.017675-0.011237 0.038484-0.013718 0.046244-0.00248 0.00776-0.00719 0.032825-0.01046 0.055702-0.015379 0.10754-1.664e-4 0.19502 0.048959 0.28154 0.027088 0.047709 0.11694 0.12591 0.16083 0.13998 0.00492 0.00158 0.019542 0.00708 0.032504 0.012236 0.012961 0.00515 0.031279 0.010951 0.040705 0.012882 0.00943 0.00193 0.025816 0.00594 0.03642 0.0089 0.013016 0.00364 0.052699 0.0054 0.12212 0.00543 0.086071 3.42e-5 0.10826-0.00127 0.1361-0.00801 0.045553-0.011025 0.048078-0.00689 0.018721 0.030627-0.024102 0.030804-0.053287 0.055426-0.09055 0.076395-0.026643 0.014993-0.08356 0.036207-0.1095 0.040812-0.010734 0.00191-0.027123 0.00543-0.03642 0.00783-0.022781 0.00588-0.11457 0.00896-0.16473 0.00553zm2.073-0.18037c-0.015748-0.00201-0.035029-0.0057-0.042848-0.0082-0.056249-0.017999-0.069261-0.022912-0.087699-0.033116-0.025365-0.014036-0.066667-0.044899-0.068809-0.051416-0.00111-0.00337 0.017604-0.00462 0.063936-0.00428 0.11365 8.315e-4 0.1818-0.013364 0.26007-0.054173 0.072712-0.037909 0.12646-0.095875 0.15789-0.1703 0.017832-0.042216 0.023025-0.068721 0.025459-0.12993 0.0041-0.10313-0.023297-0.19911-0.091951-0.32212-0.024095-0.04317-0.04081-0.065233-0.085997-0.11351-0.025383-0.02712-0.057482-0.061842-0.071331-0.07716-0.013848-0.015318-0.058099-0.062443-0.098333-0.10472-0.040235-0.04228-0.076046-0.080059-0.079581-0.083954-0.00682-0.00751-0.06518-0.068464-0.14345-0.14982-0.079857-0.083-0.092206-0.097451-0.092237-0.10793-3.43e-5 -0.012013 0.019956-0.086045 0.028302-0.10481 0.0033-0.00743 6e-3 -0.014543 6e-3 -0.015814 0-0.00626 0.037838-0.082094 0.056993-0.11422 0.02096-0.035157 0.059412-0.0889 0.085838-0.11997 0.034053-0.040041 0.068663-0.077126 0.07198-0.077126 0.00622 0 0.12223 0.086788 0.13226 0.098945 0.00118 0.00143 0.019496 0.017101 0.040705 0.034828 0.0643 0.053741 0.17856 0.16982 0.22682 0.23043 0.1085 0.13625 0.1834 0.25583 0.24023 0.38349 0.020482 0.046014 0.02267 0.051167 0.030019 0.070698 0.00399 0.010605 0.00958 0.025066 0.012433 0.032136 0.00638 0.015828 0.031373 0.095141 0.039162 0.12426 0.00315 0.011783 0.00873 0.031768 0.012398 0.044411 0.00367 0.012643 0.00669 0.028068 0.00673 0.034278 1.182e-4 0.02284 0.00469 0.031484 0.015538 0.029409l0.010112-0.00193v0.34588h-0.01063c-0.00814 0-0.011212 0.00276-0.013112 0.011783-0.00405 0.019243-0.00535 0.023718-0.012705 0.043919-0.011379 0.031246-0.033767 0.074047-0.054759 0.10469-0.00657 0.00958-0.016516 0.024175-0.022111 0.032423-0.027299 0.040242-0.096157 0.10163-0.15253 0.13599-0.033983 0.020711-0.090498 0.048251-0.099018 0.048251-0.00341 0-0.00802 0.00169-0.010262 0.00376-0.00478 0.00442-0.051158 0.018081-0.094933 0.02796-0.036311 0.00819-0.14875 0.012308-0.19057 0.00697z" stroke-width=".0042848"/>
</svg>
